<svg width="400" height="400" viewBox="0 0 400 400" fill="none" xmlns="http://www.w3.org/2000/svg">
<rect width="400" height="400" fill="white"/>
<path d="M90.2107 141.839L87.9547 132.66C87.848 132.208 87.7503 131.796 87.6649 131.419C87.5814 131.044 87.5138 130.706 87.4712 130.404C87.4303 130.082 87.3858 129.792 87.3449 129.535H87.2151C87.1725 129.792 87.1174 130.082 87.0534 130.404C87.0089 130.706 86.9449 131.044 86.8596 131.419C86.7743 131.796 86.6783 132.208 86.5698 132.66L84.2836 141.839H90.2107ZM85.3129 127.602H89.3734L95.4943 150.795H92.401L90.7903 144.255H83.672L82.0276 150.795H79L85.3129 127.602Z" fill="#1E1E1E"/>
<path d="M102.388 144.835H105.447C105.447 145.952 105.849 146.848 106.654 147.525C107.46 148.202 108.528 148.538 109.86 148.538C111.234 148.538 112.31 148.224 113.081 147.589C113.854 146.956 114.24 146.092 114.24 144.997C114.24 144.053 113.961 143.219 113.403 142.499C112.845 141.781 112.082 141.249 111.117 140.906L108.377 139.939C104.855 138.672 103.093 136.494 103.093 133.4C103.093 131.511 103.707 130.017 104.933 128.922C106.155 127.829 107.831 127.28 109.958 127.28C110.989 127.28 111.927 127.425 112.777 127.715C113.623 128.003 114.352 128.419 114.966 128.954C115.577 129.491 116.05 130.14 116.382 130.903C116.717 131.665 116.893 132.51 116.914 133.431H113.854C113.854 132.337 113.494 131.466 112.777 130.823C112.055 130.179 111.104 129.857 109.924 129.857C108.722 129.857 107.765 130.151 107.056 130.743C106.35 131.333 105.993 132.133 105.993 133.143C105.993 134.087 106.253 134.872 106.768 135.495C107.284 136.117 108.121 136.643 109.28 137.072L112.146 138.103C113.778 138.682 115.03 139.559 115.901 140.728C116.77 141.9 117.206 143.288 117.206 144.899C117.206 146.833 116.544 148.353 115.223 149.457C113.902 150.565 112.093 151.118 109.796 151.118C108.701 151.118 107.701 150.965 106.798 150.666C105.899 150.366 105.124 149.941 104.482 149.393C103.835 148.846 103.332 148.186 102.965 147.413C102.601 146.64 102.409 145.779 102.388 144.835Z" fill="#1E1E1E"/>
<path d="M128.157 144.192C128.157 145.524 128.532 146.58 129.284 147.365C130.036 148.149 131.057 148.539 132.344 148.539C133.633 148.539 134.651 148.149 135.405 147.365C136.157 146.58 136.532 145.524 136.532 144.192V134.206C136.532 132.875 136.157 131.817 135.405 131.031C134.651 130.249 133.633 129.858 132.344 129.858C131.057 129.858 130.036 130.249 129.284 131.031C128.532 131.817 128.157 132.875 128.157 134.206V144.192ZM132.344 151.118C131.249 151.118 130.267 150.955 129.396 150.635C128.527 150.311 127.786 149.851 127.174 149.248C126.562 148.647 126.09 147.916 125.757 147.058C125.425 146.199 125.256 145.243 125.256 144.192V134.206C125.256 133.154 125.425 132.197 125.757 131.339C126.09 130.48 126.562 129.747 127.174 129.148C127.786 128.546 128.527 128.083 129.396 127.763C130.267 127.442 131.249 127.278 132.344 127.278C133.439 127.278 134.422 127.442 135.293 127.763C136.162 128.083 136.902 128.546 137.515 129.148C138.125 129.747 138.598 130.48 138.932 131.339C139.265 132.197 139.432 133.154 139.432 134.206V144.192C139.432 145.243 139.265 146.192 138.932 147.042C138.598 147.892 138.125 148.615 137.515 149.216C136.902 149.819 136.157 150.284 135.277 150.617C134.394 150.949 133.418 151.118 132.344 151.118Z" fill="#1E1E1E"/>
<path d="M155.086 151.117C153.992 151.117 153.008 150.956 152.138 150.636C151.269 150.312 150.529 149.85 149.916 149.249C149.304 148.648 148.832 147.917 148.499 147.057C148.165 146.2 148 145.244 148 144.191V134.205C148 133.153 148.165 132.198 148.499 131.34C148.832 130.479 149.304 129.748 149.916 129.147C150.529 128.547 151.269 128.084 152.138 127.763C153.008 127.441 153.992 127.279 155.086 127.279C157.105 127.279 158.732 127.834 159.966 128.938C161.2 130.045 161.937 131.587 162.174 133.562H159.273C159.146 132.403 158.711 131.494 157.969 130.838C157.228 130.184 156.266 129.857 155.086 129.857C153.797 129.857 152.776 130.244 152.024 131.016C151.272 131.789 150.901 132.852 150.901 134.205V144.191C150.901 145.544 151.269 146.607 152.01 147.38C152.752 148.154 153.776 148.54 155.086 148.54C156.266 148.54 157.228 148.214 157.969 147.558C158.711 146.902 159.146 145.994 159.273 144.835H162.174C161.937 146.812 161.2 148.353 159.966 149.457C158.732 150.564 157.105 151.117 155.086 151.117Z" fill="#1E1E1E"/>
<path d="M175.959 148.25V130.145H170.839V127.601H184.046V130.145H178.923V148.25H184.046V150.796H170.839V148.25H175.959Z" fill="#1E1E1E"/>
<path d="M202.954 141.839L200.698 132.66C200.592 132.208 200.494 131.796 200.408 131.419C200.325 131.044 200.257 130.706 200.215 130.404C200.174 130.082 200.129 129.792 200.088 129.535H199.959C199.916 129.792 199.861 130.082 199.797 130.404C199.752 130.706 199.688 131.044 199.603 131.419C199.518 131.796 199.422 132.208 199.313 132.66L197.027 141.839H202.954ZM198.056 127.602H202.117L208.238 150.795H205.144L203.534 144.255H196.415L194.771 150.795H191.743L198.056 127.602Z" fill="#1E1E1E"/>
<path d="M222.732 151.117C221.639 151.117 220.654 150.956 219.784 150.636C218.915 150.312 218.176 149.85 217.562 149.249C216.951 148.648 216.478 147.917 216.145 147.057C215.811 146.2 215.646 145.244 215.646 144.191V134.205C215.646 133.153 215.811 132.198 216.145 131.34C216.478 130.479 216.951 129.748 217.562 129.147C218.176 128.547 218.915 128.084 219.784 127.763C220.654 127.441 221.639 127.279 222.732 127.279C224.752 127.279 226.378 127.834 227.612 128.938C228.846 130.045 229.584 131.587 229.82 133.562H226.919C226.792 132.403 226.357 131.494 225.616 130.838C224.874 130.184 223.912 129.857 222.732 129.857C221.443 129.857 220.423 130.244 219.671 131.016C218.919 131.789 218.547 132.852 218.547 134.205V144.191C218.547 145.544 218.915 146.607 219.656 147.38C220.398 148.154 221.422 148.54 222.732 148.54C223.912 148.54 224.874 148.214 225.616 147.558C226.357 146.902 226.792 145.994 226.919 144.835H229.82C229.584 146.812 228.846 148.353 227.612 149.457C226.378 150.564 224.752 151.117 222.732 151.117Z" fill="#1E1E1E"/>
<path d="M243.605 148.25V130.145H238.485V127.601H251.693V130.145H246.569V148.25H251.693V150.796H238.485V148.25H243.605Z" fill="#1E1E1E"/>
<path d="M268.281 124.702H265.381L268.924 120H272.468L268.281 124.702ZM263.449 144.192C263.449 145.524 263.824 146.58 264.576 147.365C265.328 148.148 266.348 148.539 267.637 148.539C268.924 148.539 269.945 148.148 270.697 147.365C271.449 146.58 271.824 145.524 271.824 144.192V134.206C271.824 132.875 271.449 131.815 270.697 131.031C269.945 130.249 268.924 129.856 267.637 129.856C266.348 129.856 265.328 130.249 264.576 131.031C263.824 131.815 263.449 132.875 263.449 134.206V144.192ZM267.637 151.117C266.54 151.117 265.559 150.955 264.688 150.635C263.819 150.311 263.077 149.851 262.466 149.248C261.854 148.647 261.381 147.917 261.051 147.058C260.716 146.199 260.547 145.243 260.547 144.192V134.206C260.547 133.152 260.716 132.197 261.051 131.339C261.381 130.48 261.854 129.748 262.466 129.147C263.077 128.546 263.819 128.084 264.688 127.764C265.559 127.442 266.54 127.278 267.637 127.278C268.731 127.278 269.716 127.442 270.585 127.764C271.454 128.084 272.194 128.546 272.807 129.147C273.419 129.748 273.89 130.48 274.224 131.339C274.556 132.197 274.724 133.152 274.724 134.206V144.192C274.724 145.243 274.556 146.192 274.224 147.042C273.89 147.89 273.419 148.615 272.807 149.216C272.194 149.819 271.449 150.285 270.569 150.617C269.687 150.949 268.709 151.117 267.637 151.117Z" fill="#1E1E1E"/>
<path d="M286.932 127.602L293.083 143.159C293.257 143.547 293.415 143.993 293.568 144.496C293.718 145.003 293.847 145.481 293.952 145.931C294.103 146.469 294.244 147.015 294.374 147.573H294.63C294.589 147.122 294.544 146.704 294.502 146.316C294.459 145.931 294.422 145.486 294.388 144.98C294.356 144.476 294.34 143.945 294.34 143.387V127.602H297.111V150.795H293.439L287.382 135.205C287.211 134.709 287.04 134.206 286.868 133.691C286.695 133.173 286.555 132.702 286.448 132.272C286.299 131.779 286.169 131.285 286.063 130.791H285.805C285.847 131.134 285.89 131.522 285.933 131.95C285.954 132.316 285.975 132.75 285.999 133.255C286.018 133.76 286.029 134.323 286.029 134.946V150.795H283.261V127.602H286.932Z" fill="#1E1E1E"/>
<path d="M87.4399 194.067C86.3466 194.067 85.3617 193.905 84.4923 193.585C83.623 193.262 82.8834 192.8 82.2701 192.199C81.6585 191.598 81.1856 190.867 80.8532 190.007C80.519 189.15 80.3536 188.193 80.3536 187.141V177.155C80.3536 176.103 80.519 175.148 80.8532 174.289C81.1856 173.429 81.6585 172.698 82.2701 172.097C82.8834 171.496 83.623 171.034 84.4923 170.712C85.3617 170.391 86.3466 170.229 87.4399 170.229C89.4595 170.229 91.0861 170.784 92.3199 171.888C93.5537 172.995 94.2915 174.536 94.5279 176.512H91.6266C91.5004 175.352 91.0648 174.444 90.3235 173.788C89.5821 173.136 88.6203 172.807 87.4399 172.807C86.151 172.807 85.1305 173.194 84.3785 173.966C83.6265 174.739 83.255 175.802 83.255 177.155V187.141C83.255 188.494 83.623 189.557 84.3643 190.33C85.1057 191.104 86.1297 191.489 87.4399 191.489C88.6203 191.489 89.5821 191.164 90.3235 190.508C91.0648 189.852 91.5004 188.945 91.6266 187.785H94.5279C94.2915 189.761 93.5537 191.303 92.3199 192.407C91.0861 193.514 89.4595 194.067 87.4399 194.067Z" fill="#1E1E1E"/>
<path d="M103.03 193.745V170.552H105.93V180.344H113.661V170.552H116.559V193.745H113.661V182.986H105.93V193.745H103.03Z" fill="#1E1E1E"/>
<path d="M130.862 191.2V173.095H125.742V170.551H138.949V173.095H133.825V191.2H138.949V193.746H125.742V191.2H130.862Z" fill="#1E1E1E"/>
<path d="M151.511 170.551V191.104H162.462V193.744H148.61V170.551H151.511Z" fill="#1E1E1E"/>
<path d="M170.84 193.745V170.552H184.528V173.194H173.737V180.472H183.401V183.114H173.737V191.103H184.528V193.745H170.84Z" fill="#1E1E1E"/>
<path d="M196.737 170.551L202.888 186.109C203.063 186.496 203.221 186.943 203.374 187.447C203.523 187.952 203.653 188.431 203.758 188.88C203.909 189.419 204.049 189.965 204.179 190.523H204.435C204.394 190.071 204.35 189.654 204.307 189.266C204.264 188.88 204.227 188.436 204.193 187.929C204.161 187.426 204.145 186.895 204.145 186.336V170.551H206.917V193.744H203.244L197.187 178.155C197.016 177.659 196.846 177.156 196.673 176.64C196.501 176.123 196.36 175.652 196.254 175.222C196.104 174.729 195.974 174.235 195.868 173.741H195.61C195.653 174.084 195.695 174.471 195.738 174.9C195.759 175.266 195.781 175.7 195.804 176.205C195.823 176.71 195.834 177.273 195.834 177.897V193.744H193.066V170.551H196.737Z" fill="#1E1E1E"/>
<path d="M225.503 184.788L223.247 175.61C223.14 175.158 223.042 174.746 222.957 174.369C222.873 173.994 222.806 173.656 222.763 173.354C222.722 173.032 222.678 172.742 222.637 172.484H222.507C222.465 172.742 222.409 173.032 222.345 173.354C222.301 173.656 222.237 173.994 222.152 174.369C222.066 174.746 221.97 175.158 221.862 175.61L219.576 184.788H225.503ZM220.605 170.552H224.665L230.786 193.745H227.693L226.082 187.204H218.964L217.32 193.745H214.292L220.605 170.552Z" fill="#1E1E1E"/>
<path d="M83.3182 234.12H86.8933C88.2444 234.12 89.336 233.708 90.1626 232.879C90.9875 232.053 91.4017 230.961 91.4017 229.608V220.558C91.4017 219.205 90.9875 218.12 90.1626 217.304C89.336 216.49 88.2444 216.081 86.8933 216.081H83.3182V234.12ZM80.4168 213.503H86.8933C88.0097 213.503 89.0231 213.676 89.9369 214.019C90.8489 214.362 91.6329 214.84 92.2871 215.452C92.9431 216.063 93.448 216.805 93.8018 217.674C94.1573 218.543 94.3333 219.505 94.3333 220.558V229.608C94.3333 230.663 94.1573 231.63 93.8018 232.51C93.448 233.39 92.9431 234.136 92.2871 234.748C91.6329 235.359 90.8489 235.838 89.9369 236.181C89.0231 236.526 88.0097 236.696 86.8933 236.696H80.4168V213.503Z" fill="#1E1E1E"/>
<path d="M103.193 236.697V213.504H116.882V216.146H106.091V223.426H115.755V226.066H106.091V234.057H116.882V236.697H103.193Z" fill="#1E1E1E"/>
<path d="M147.804 236.697V213.504H162.462V217.692H152.638V222.716H161.335V226.905H152.638V232.51H162.462V236.697H147.804Z" fill="#1E1E1E"/>
<path d="M169.228 230.415H174.06C174.229 232.025 175.39 232.831 177.539 232.831C178.61 232.831 179.427 232.599 179.987 232.139C180.544 231.677 180.825 231.06 180.825 230.285C180.825 229.599 180.602 229.008 180.163 228.514C179.722 228.022 179.116 227.687 178.345 227.515L175.895 226.969C173.788 226.496 172.197 225.652 171.113 224.439C170.026 223.227 169.484 221.673 169.484 219.785C169.484 218.797 169.673 217.895 170.05 217.078C170.425 216.263 170.956 215.565 171.642 214.985C172.33 214.406 173.162 213.954 174.14 213.632C175.116 213.309 176.218 213.149 177.442 213.149C179.738 213.149 181.58 213.718 182.967 214.855C184.352 215.993 185.118 217.574 185.269 219.591H180.439C180.35 218.882 180.035 218.329 179.488 217.933C178.938 217.534 178.217 217.335 177.312 217.335C176.368 217.335 175.634 217.563 175.106 218.013C174.579 218.464 174.318 219.033 174.318 219.719C174.318 220.322 174.521 220.843 174.93 221.282C175.338 221.723 175.929 222.029 176.7 222.201L179.276 222.781C181.36 223.254 182.944 224.107 184.028 225.341C185.113 226.576 185.657 228.15 185.657 230.061C185.657 231.09 185.463 232.032 185.075 232.879C184.688 233.728 184.137 234.457 183.417 235.071C182.697 235.682 181.833 236.159 180.825 236.503C179.813 236.847 178.686 237.019 177.442 237.019C176.238 237.019 175.143 236.863 174.154 236.551C173.168 236.24 172.32 235.801 171.61 235.231C170.903 234.662 170.343 233.97 169.934 233.152C169.529 232.338 169.292 231.424 169.228 230.415Z" fill="#1E1E1E"/>
<path d="M191.454 218.013V213.502H208.526V218.013H202.405V236.697H197.573V218.013H191.454Z" fill="#1E1E1E"/>
<path d="M222.539 237.019C221.357 237.019 220.289 236.852 219.332 236.519C218.377 236.185 217.561 235.708 216.886 235.086C216.209 234.464 215.693 233.707 215.339 232.814C214.984 231.924 214.808 230.919 214.808 229.803V213.502H219.64V229.771C219.64 230.759 219.894 231.516 220.397 232.043C220.9 232.569 221.615 232.83 222.539 232.83C223.442 232.83 224.148 232.569 224.666 232.043C225.179 231.516 225.437 230.759 225.437 229.771V213.502H230.271V229.803C230.271 230.919 230.093 231.924 229.738 232.814C229.386 233.707 228.868 234.464 228.193 235.086C227.515 235.708 226.705 236.185 225.761 236.519C224.815 236.852 223.743 237.019 222.539 237.019Z" fill="#1E1E1E"/>
<path d="M242.284 232.187H245.088C246.076 232.187 246.871 231.908 247.472 231.348C248.073 230.792 248.373 230.05 248.373 229.126V221.042C248.373 220.139 248.073 219.408 247.472 218.85C246.871 218.294 246.076 218.013 245.088 218.013H242.284V232.187ZM237.452 213.503H245.088C246.313 213.503 247.424 213.68 248.421 214.034C249.422 214.388 250.274 214.898 250.983 215.565C251.692 216.23 252.24 217.026 252.626 217.947C253.011 218.872 253.207 219.903 253.207 221.042V229.126C253.207 230.264 253.011 231.302 252.626 232.233C252.24 233.168 251.692 233.963 250.983 234.619C250.274 235.273 249.422 235.784 248.421 236.15C247.424 236.514 246.313 236.697 245.088 236.697H237.452V213.503Z" fill="#1E1E1E"/>
<path d="M260.388 217.691V213.503H274.883V217.691H270.053V232.509H274.883V236.696H260.388V232.509H265.221V217.691H260.388Z" fill="#1E1E1E"/>
<path d="M286.899 229.771C286.899 230.696 287.194 231.428 287.784 231.978C288.376 232.525 289.174 232.799 290.186 232.799C291.194 232.799 291.994 232.525 292.584 231.978C293.176 231.428 293.47 230.696 293.47 229.771V220.397C293.47 219.473 293.176 218.737 292.584 218.189C291.994 217.643 291.194 217.37 290.186 217.37C289.174 217.37 288.376 217.643 287.784 218.189C287.194 218.737 286.899 219.473 286.899 220.397V229.771ZM290.186 237.019C288.961 237.019 287.848 236.845 286.851 236.504C285.852 236.159 285 235.672 284.289 235.037C283.583 234.404 283.032 233.643 282.646 232.751C282.262 231.858 282.067 230.866 282.067 229.771V220.397C282.067 219.302 282.262 218.314 282.646 217.434C283.032 216.554 283.583 215.794 284.289 215.162C285 214.53 285.852 214.04 286.851 213.697C287.848 213.354 288.961 213.179 290.186 213.179C291.409 213.179 292.52 213.354 293.519 213.697C294.519 214.04 295.372 214.53 296.079 215.162C296.789 215.794 297.336 216.554 297.724 217.434C298.11 218.314 298.303 219.302 298.303 220.397V229.771C298.303 230.845 298.104 231.828 297.706 232.719C297.308 233.61 296.757 234.372 296.047 235.005C295.34 235.638 294.487 236.134 293.486 236.488C292.488 236.842 291.388 237.019 290.186 237.019Z" fill="#1E1E1E"/>
<path d="M304.521 230.415H309.353C309.522 232.025 310.682 232.831 312.832 232.831C313.902 232.831 314.72 232.599 315.28 232.139C315.836 231.677 316.117 231.06 316.117 230.285C316.117 229.599 315.895 229.008 315.456 228.514C315.015 228.022 314.409 227.687 313.637 227.515L311.187 226.969C309.081 226.496 307.49 225.652 306.405 224.439C305.319 223.227 304.777 221.673 304.777 219.785C304.777 218.797 304.965 217.895 305.342 217.078C305.717 216.263 306.249 215.565 306.935 214.985C307.623 214.406 308.455 213.954 309.433 213.632C310.409 213.309 311.511 213.149 312.734 213.149C315.031 213.149 316.873 213.718 318.259 214.855C319.644 215.993 320.41 217.574 320.562 219.591H315.731C315.642 218.882 315.328 218.329 314.78 217.933C314.231 217.534 313.509 217.335 312.604 217.335C311.66 217.335 310.926 217.563 310.398 218.013C309.872 218.464 309.61 219.033 309.61 219.719C309.61 220.322 309.813 220.843 310.222 221.282C310.631 221.723 311.221 222.029 311.993 222.201L314.569 222.781C316.652 223.254 318.236 224.107 319.321 225.341C320.405 226.576 320.949 228.15 320.949 230.061C320.949 231.09 320.755 232.032 320.368 232.879C319.982 233.728 319.429 234.457 318.709 235.071C317.989 235.682 317.125 236.159 316.117 236.503C315.106 236.847 313.978 237.019 312.734 237.019C311.53 237.019 310.435 236.863 309.447 236.551C308.46 236.24 307.612 235.801 306.903 235.231C306.195 234.662 305.635 233.97 305.226 233.152C304.821 232.338 304.585 231.424 304.521 230.415Z" fill="#1E1E1E"/>
<path d="M84.4432 275.137H87.2467C88.2352 275.137 89.0299 274.858 89.6307 274.298C90.2316 273.741 90.5321 273 90.5321 272.076V263.992C90.5321 263.089 90.2316 262.358 89.6307 261.802C89.0299 261.244 88.2352 260.963 87.2467 260.963H84.4432V275.137ZM79.6111 256.452H87.2467C88.4716 256.452 89.5827 256.63 90.5801 256.984C91.581 257.338 92.4325 257.848 93.1419 258.515C93.8512 259.18 94.3988 259.976 94.7845 260.897C95.1703 261.821 95.3641 262.852 95.3641 263.992V272.076C95.3641 273.213 95.1703 274.252 94.7845 275.183C94.3988 276.118 93.8512 276.913 93.1419 277.569C92.4325 278.223 91.581 278.733 90.5801 279.1C89.5827 279.464 88.4716 279.647 87.2467 279.647H79.6111V256.452Z" fill="#1E1E1E"/>
<path d="M102.707 279.646V256.453H117.365V260.642H107.541V265.666H116.238V269.854H107.541V275.46H117.365V279.646H102.707Z" fill="#1E1E1E"/>
<path d="M130.574 256.453V275.138H140.076V279.646H125.742V256.453H130.574Z" fill="#1E1E1E"/>
<path d="M168.905 260.962V256.452H185.978V260.962H179.857V279.647H175.025V260.962H168.905Z" fill="#1E1E1E"/>
<path d="M197.22 266.922H200.151C201.204 266.922 202.029 266.637 202.631 266.07C203.232 265.499 203.534 264.733 203.534 263.766C203.534 262.756 203.227 261.956 202.615 261.366C202.002 260.776 201.182 260.479 200.151 260.479H197.22V266.922ZM200.151 256.452C201.417 256.452 202.557 256.621 203.565 256.954C204.574 257.286 205.433 257.759 206.144 258.37C206.852 258.982 207.401 259.723 207.785 260.593C208.173 261.462 208.366 262.443 208.366 263.54C208.366 265.042 207.998 266.331 207.271 267.403C206.541 268.479 205.533 269.295 204.244 269.853L208.688 279.647H203.534L199.604 270.626H197.22V279.647H192.42V256.452H200.151Z" fill="#1E1E1E"/>
<path d="M224.859 270.563L223.086 262.929C223.022 262.606 222.958 262.257 222.894 261.881C222.827 261.505 222.775 261.146 222.733 260.801C222.688 260.437 222.647 260.062 222.603 259.674H222.409C222.366 260.062 222.313 260.437 222.249 260.801C222.206 261.146 222.157 261.505 222.105 261.881C222.052 262.257 221.981 262.606 221.893 262.929L220.155 270.563H224.859ZM219.381 256.453H225.824L231.879 279.646H226.983L225.76 274.332H219.285L218.061 279.646H213.197L219.381 256.453Z" fill="#1E1E1E"/>
<path d="M242.124 269.564V275.781H245.216C246.291 275.781 247.122 275.513 247.714 274.974C248.304 274.441 248.599 273.676 248.599 272.688C248.599 271.701 248.304 270.933 247.714 270.386C247.122 269.838 246.291 269.564 245.216 269.564H242.124ZM245.152 265.699C246.076 265.699 246.812 265.452 247.358 264.958C247.906 264.464 248.179 263.809 248.179 262.993C248.179 262.177 247.911 261.527 247.374 261.045C246.837 260.56 246.096 260.32 245.152 260.32H242.124V265.699H245.152ZM237.452 256.453H245.216C246.419 256.453 247.502 256.593 248.471 256.871C249.436 257.152 250.258 257.548 250.933 258.064C251.611 258.579 252.132 259.201 252.498 259.932C252.862 260.663 253.045 261.479 253.045 262.38C253.045 263.82 252.642 264.977 251.836 265.859C251.031 266.741 249.92 267.244 248.503 267.374V267.728C250.048 267.834 251.262 268.352 252.142 269.273C253.022 270.197 253.463 271.411 253.463 272.915C253.463 273.945 253.275 274.874 252.901 275.701C252.524 276.528 251.988 277.235 251.289 277.826C250.59 278.418 249.744 278.869 248.745 279.18C247.746 279.491 246.633 279.646 245.411 279.646H237.452V256.453Z" fill="#1E1E1E"/>
<path d="M269.956 270.563L268.184 262.929C268.12 262.606 268.056 262.257 267.992 261.881C267.924 261.505 267.873 261.146 267.83 260.801C267.786 260.437 267.745 260.062 267.7 259.674H267.506C267.464 260.062 267.41 260.437 267.346 260.801C267.304 261.146 267.254 261.505 267.202 261.881C267.149 262.257 267.078 262.606 266.991 262.929L265.252 270.563H269.956ZM264.481 256.453H270.922L276.977 279.646H272.081L270.858 274.332H264.383L263.158 279.646H258.294L264.481 256.453Z" fill="#1E1E1E"/>
<path d="M285.998 272.882C286.039 273.762 286.352 274.471 286.931 275.008C287.513 275.545 288.272 275.813 289.219 275.813C290.206 275.813 290.992 275.524 291.571 274.944C292.149 274.363 292.441 273.591 292.441 272.622V260.931H284.707V256.421H297.273V272.622C297.273 273.762 297.084 274.788 296.707 275.7C296.332 276.613 295.797 277.385 295.097 278.02C294.402 278.652 293.557 279.143 292.569 279.486C291.582 279.829 290.464 280 289.219 280C288.018 280 286.924 279.835 285.95 279.502C284.972 279.17 284.135 278.695 283.436 278.085C282.739 277.474 282.195 276.727 281.81 275.845C281.424 274.964 281.209 273.977 281.166 272.882H285.998Z" fill="#1E1E1E"/>
<path d="M309.448 272.721C309.448 273.646 309.743 274.38 310.333 274.927C310.925 275.475 311.723 275.749 312.735 275.749C313.743 275.749 314.543 275.475 315.133 274.927C315.725 274.38 316.018 273.646 316.018 272.721V263.347C316.018 262.422 315.725 261.686 315.133 261.141C314.543 260.593 313.743 260.319 312.735 260.319C311.723 260.319 310.925 260.593 310.333 261.141C309.743 261.686 309.448 262.422 309.448 263.347V272.721ZM312.735 279.969C311.51 279.969 310.397 279.797 309.4 279.454C308.401 279.109 307.549 278.622 306.838 277.987C306.132 277.354 305.581 276.593 305.195 275.701C304.811 274.81 304.616 273.816 304.616 272.721V263.347C304.616 262.252 304.811 261.263 305.195 260.383C305.581 259.503 306.132 258.744 306.838 258.113C307.549 257.48 308.401 256.989 309.4 256.646C310.397 256.303 311.51 256.129 312.735 256.129C313.958 256.129 315.069 256.303 316.068 256.646C317.067 256.989 317.921 257.48 318.628 258.113C319.338 258.744 319.885 259.503 320.273 260.383C320.658 261.263 320.852 262.252 320.852 263.347V272.721C320.852 273.795 320.653 274.778 320.255 275.669C319.857 276.559 319.306 277.322 318.596 277.955C317.889 278.588 317.035 279.084 316.034 279.438C315.037 279.791 313.937 279.969 312.735 279.969Z" fill="#1E1E1E"/>
</svg>
